<svg xmlns="http://www.w3.org/2000/svg" viewBox="-688 -1302 23.892 23.966">
  <defs>
    <style>
      .cls-1 {
        fill: #a4a4a4;
      }
    </style>
  </defs>
  <g id="Symbol_5_2" data-name="Symbol 5 – 2" transform="translate(-1513.913 -1751.219)">
    <path id="Path_21" data-name="Path 21" class="cls-1" d="M9.233,12.5a6.252,6.252,0,1,1,6.233-6.252A6.261,6.261,0,0,1,9.233,12.5Zm0-10.42a4.168,4.168,0,1,0,4.155,4.168A4.174,4.174,0,0,0,9.233,2.084Z" transform="translate(826.03 449.219)"/>
    <path id="Path_22" data-name="Path 22" class="cls-1" d="M14.751,12.771A9.068,9.068,0,0,0,9.349,11,9.325,9.325,0,0,0,0,20.378H2.078a7.238,7.238,0,0,1,7.271-7.294,6.91,6.91,0,0,1,4.051,1.25A6.653,6.653,0,0,1,14.751,12.771Z" transform="translate(825.913 449.681)"/>
    <g id="Group_12" data-name="Group 12" transform="translate(839.521 462.869)">
      <path id="Path_23" data-name="Path 23" class="cls-1" d="M18.294,21.536h-.1a1.763,1.763,0,0,1-.727-.1l-.727,1.563-1.662-.625L15.9,20.7c-.208-.1-.416-.417-.623-.625l-1.662.521L13.1,18.931l1.766-.625a2.23,2.23,0,0,1,0-.834l-1.558-.729.727-1.563,1.662.834c.1-.208.416-.417.623-.625L15.8,13.721l1.662-.521.623,1.771h.1a1.763,1.763,0,0,1,.727.1l.727-1.563,1.558.729-.831,1.667c.208.1.416.417.623.625l1.662-.521.519,1.667-1.766.625a2.23,2.23,0,0,1,0,.834l1.558.729-.727,1.459-1.662-.834c-.1.208-.416.417-.623.625l.519,1.667-1.662.625Zm-.1-4.9a1.657,1.657,0,0,0-1.454.834,1.6,1.6,0,0,0,.727,2.188,1.921,1.921,0,0,0,.727.208,1.657,1.657,0,0,0,1.454-.834,1.6,1.6,0,0,0-.727-2.188A.875.875,0,0,0,18.19,16.639Z" transform="translate(-13.1 -13.096)"/>
      <path id="Path_24" data-name="Path 24" class="cls-1" d="M17.459,13.2l.519,1.667h.208a1.763,1.763,0,0,1,.727.1l.831-1.563,1.454.729-.831,1.563a4.528,4.528,0,0,1,.623.729l1.662-.521.519,1.563L21.51,18a2.893,2.893,0,0,1-.1.938l1.558.834-.727,1.563L20.679,20.5a4.522,4.522,0,0,1-.727.625l.519,1.667-1.558.521-.519-1.667h-.208a1.763,1.763,0,0,1-.727-.1L16.628,23.1l-1.454-.729L16,20.811a4.528,4.528,0,0,1-.623-.729l-1.662.521L13.2,19.039l1.662-.521a2.893,2.893,0,0,1,.1-.938l-1.558-.834.727-1.459,1.558.834a4.522,4.522,0,0,1,.727-.625L15.9,13.829l1.558-.625m.727,6.669a1.566,1.566,0,0,0,1.454-.938,1.713,1.713,0,0,0-.727-2.292,1.921,1.921,0,0,0-.727-.208,1.566,1.566,0,0,0-1.454.938,1.713,1.713,0,0,0,.727,2.292.875.875,0,0,0,.727.208M17.563,13.1h0l-1.662.521h-.1v.1l.519,1.667a2.756,2.756,0,0,0-.623.521l-1.454-.834h-.1v.1l-.727,1.459v.1h.1l1.558.834a2.037,2.037,0,0,0-.1.834l-1.662.521h-.1v.1l.519,1.563v.1h.1l1.662-.521a2.761,2.761,0,0,0,.519.625L15.07,22.27v.1h.1l1.454.729h.1V23l.831-1.563c.208,0,.416.1.727.1h.1l.519,1.667v.1h.1l1.558-.521h.1v-.1l-.519-1.667a2.756,2.756,0,0,0,.623-.521l1.558.834h.1v-.1l.727-1.459v-.1h-.1l-1.558-.834a2.037,2.037,0,0,0,.1-.834l1.662-.521h.1v-.1l-.519-1.563v-.1h-.1l-1.662.521a2.761,2.761,0,0,0-.519-.625l.831-1.563v-.1h-.1L19.848,13.2h-.1v.1l-.831,1.563c-.208,0-.416-.1-.727-.1h-.1L17.563,13.1Zm.623,6.669a1.921,1.921,0,0,1-.727-.208,1.554,1.554,0,0,1-.623-2.084,1.62,1.62,0,0,1,1.35-.834,1.921,1.921,0,0,1,.727.208,1.554,1.554,0,0,1,.623,2.084,1.391,1.391,0,0,1-1.35.834Z" transform="translate(-13.096 -13.1)"/>
    </g>
  </g>
</svg>
